<?xml version="1.0" encoding="us-ascii" standalone="no"?><svg xmlns="http://www.w3.org/2000/svg" xmlns:xlink="http://www.w3.org/1999/xlink" contentStyleType="text/css" height="410px" preserveAspectRatio="none" style="width:2132px;height:410px;background:#FFFFFF;" version="1.1" viewBox="0 0 2132 410" width="2132px" zoomAndPan="magnify"><defs/><g><!--cluster Worker--><g id="cluster_Worker"><path d="M1064.5,6.294 L1113.5,6.294 A3.75,3.75 0 0 1 1116,8.794 L1123,29.0939 L1365.5,29.0939 A2.5,2.5 0 0 1 1368,31.5939 L1368,101.594 A2.5,2.5 0 0 1 1365.5,104.094 L1064.5,104.094 A2.5,2.5 0 0 1 1062,101.594 L1062,8.794 A2.5,2.5 0 0 1 1064.5,6.294 " fill="none" style="stroke:#000000;stroke-width:1.5;"/><line style="stroke:#000000;stroke-width:1.5;" x1="1062" x2="1123" y1="29.0939" y2="29.0939"/><text fill="#000000" font-family="sans-serif" font-size="14" font-weight="bold" lengthAdjust="spacing" textLength="48" x="1066" y="21.2999">Worker</text></g><!--cluster HTTP API--><g id="cluster_HTTP API"><path d="M623.5,153.094 L688.5,153.094 A3.75,3.75 0 0 1 691,155.594 L698,175.8939 L777.5,175.8939 A2.5,2.5 0 0 1 780,178.3939 L780,248.394 A2.5,2.5 0 0 1 777.5,250.894 L623.5,250.894 A2.5,2.5 0 0 1 621,248.394 L621,155.594 A2.5,2.5 0 0 1 623.5,153.094 " fill="none" style="stroke:#000000;stroke-width:1.5;"/><line style="stroke:#000000;stroke-width:1.5;" x1="621" x2="698" y1="175.8939" y2="175.8939"/><text fill="#000000" font-family="sans-serif" font-size="14" font-weight="bold" lengthAdjust="spacing" textLength="64" x="625" y="168.0999">HTTP API</text></g><!--cluster PostgreSQL--><g id="cluster_PostgreSQL"><path d="M622.5,305.294 L705.5,305.294 A3.75,3.75 0 0 1 708,307.794 L715,328.0939 L962.5,328.0939 A2.5,2.5 0 0 1 965,330.5939 L965,400.594 A2.5,2.5 0 0 1 962.5,403.094 L622.5,403.094 A2.5,2.5 0 0 1 620,400.594 L620,307.794 A2.5,2.5 0 0 1 622.5,305.294 " fill="none" style="stroke:#000000;stroke-width:1.5;"/><line style="stroke:#000000;stroke-width:1.5;" x1="620" x2="715" y1="328.0939" y2="328.0939"/><text fill="#000000" font-family="sans-serif" font-size="14" font-weight="bold" lengthAdjust="spacing" textLength="82" x="624" y="320.2999">PostgreSQL</text></g><!--cluster RabbitMQ--><g id="cluster_RabbitMQ"><path d="M1050.5,307.894 L1119.5,307.894 A3.75,3.75 0 0 1 1122,310.394 L1129,330.6939 L1330.5,330.6939 A2.5,2.5 0 0 1 1333,333.1939 L1333,397.994 A2.5,2.5 0 0 1 1330.5,400.494 L1050.5,400.494 A2.5,2.5 0 0 1 1048,397.994 L1048,310.394 A2.5,2.5 0 0 1 1050.5,307.894 " fill="none" style="stroke:#000000;stroke-width:1.5;"/><line style="stroke:#000000;stroke-width:1.5;" x1="1048" x2="1129" y1="330.6939" y2="330.6939"/><text fill="#000000" font-family="sans-serif" font-size="14" font-weight="bold" lengthAdjust="spacing" textLength="68" x="1052" y="322.8999">RabbitMQ</text></g><!--cluster Redis--><g id="cluster_Redis"><path d="M1401.5,307.894 L1441.5,307.894 A3.75,3.75 0 0 1 1444,310.394 L1451,330.6939 L1972.5,330.6939 A2.5,2.5 0 0 1 1975,333.1939 L1975,397.994 A2.5,2.5 0 0 1 1972.5,400.494 L1401.5,400.494 A2.5,2.5 0 0 1 1399,397.994 L1399,310.394 A2.5,2.5 0 0 1 1401.5,307.894 " fill="none" style="stroke:#000000;stroke-width:1.5;"/><line style="stroke:#000000;stroke-width:1.5;" x1="1399" x2="1451" y1="330.6939" y2="330.6939"/><text fill="#000000" font-family="sans-serif" font-size="14" font-weight="bold" lengthAdjust="spacing" textLength="39" x="1403" y="322.8999">Redis</text></g><!--cluster Task publisher--><g id="cluster_Task publisher"><path d="M1662.5,153.094 L1765.5,153.094 A3.75,3.75 0 0 1 1768,155.594 L1775,175.8939 L2054.5,175.8939 A2.5,2.5 0 0 1 2057,178.3939 L2057,248.394 A2.5,2.5 0 0 1 2054.5,250.894 L1662.5,250.894 A2.5,2.5 0 0 1 1660,248.394 L1660,155.594 A2.5,2.5 0 0 1 1662.5,153.094 " fill="none" style="stroke:#000000;stroke-width:1.5;"/><line style="stroke:#000000;stroke-width:1.5;" x1="1660" x2="1775" y1="175.8939" y2="175.8939"/><text fill="#000000" font-family="sans-serif" font-size="14" font-weight="bold" lengthAdjust="spacing" textLength="102" x="1664" y="168.0999">Task publisher</text></g><!--cluster Configure system--><g id="cluster_Configure system"><path d="M8.5,153.094 L130.5,153.094 A3.75,3.75 0 0 1 133,155.594 L140,175.8939 L594.5,175.8939 A2.5,2.5 0 0 1 597,178.3939 L597,248.394 A2.5,2.5 0 0 1 594.5,250.894 L8.5,250.894 A2.5,2.5 0 0 1 6,248.394 L6,155.594 A2.5,2.5 0 0 1 8.5,153.094 " fill="none" style="stroke:#000000;stroke-width:1.5;"/><line style="stroke:#000000;stroke-width:1.5;" x1="6" x2="140" y1="175.8939" y2="175.8939"/><text fill="#000000" font-family="sans-serif" font-size="14" font-weight="bold" lengthAdjust="spacing" textLength="121" x="10" y="168.0999">Configure system</text></g><!--cluster Cli--><g id="cluster_Cli"><path d="M176.5,6.294 L195.5,6.294 A3.75,3.75 0 0 1 198,8.794 L205,29.0939 L572.5,29.0939 A2.5,2.5 0 0 1 575,31.5939 L575,101.594 A2.5,2.5 0 0 1 572.5,104.094 L176.5,104.094 A2.5,2.5 0 0 1 174,101.594 L174,8.794 A2.5,2.5 0 0 1 176.5,6.294 " fill="none" style="stroke:#000000;stroke-width:1.5;"/><line style="stroke:#000000;stroke-width:1.5;" x1="174" x2="205" y1="29.0939" y2="29.0939"/><text fill="#000000" font-family="sans-serif" font-size="14" font-weight="bold" lengthAdjust="spacing" textLength="18" x="178" y="21.2999">Cli</text></g><!--cluster Frontend--><g id="cluster_Frontend"><path d="M601.5,6.294 L665.5,6.294 A3.75,3.75 0 0 1 668,8.794 L675,29.0939 L1035.5,29.0939 A2.5,2.5 0 0 1 1038,31.5939 L1038,101.594 A2.5,2.5 0 0 1 1035.5,104.094 L601.5,104.094 A2.5,2.5 0 0 1 599,101.594 L599,8.794 A2.5,2.5 0 0 1 601.5,6.294 " fill="none" style="stroke:#000000;stroke-width:1.5;"/><line style="stroke:#000000;stroke-width:1.5;" x1="599" x2="675" y1="29.0939" y2="29.0939"/><text fill="#000000" font-family="sans-serif" font-size="14" font-weight="bold" lengthAdjust="spacing" textLength="63" x="603" y="21.2999">Frontend</text></g><!--entity Selenium--><g id="elem_Selenium"><rect fill="#F1F1F1" height="46.7999" rx="2.5" ry="2.5" style="stroke:#181818;stroke-width:0.5;" width="99" x="1078.5" y="41.294"/><rect fill="#F1F1F1" height="10" style="stroke:#181818;stroke-width:0.5;" width="15" x="1157.5" y="46.294"/><rect fill="#F1F1F1" height="2" style="stroke:#181818;stroke-width:0.5;" width="4" x="1155.5" y="48.294"/><rect fill="#F1F1F1" height="2" style="stroke:#181818;stroke-width:0.5;" width="4" x="1155.5" y="52.294"/><text fill="#000000" font-family="sans-serif" font-size="14" lengthAdjust="spacing" textLength="59" x="1093.5" y="74.2999">Selenium</text></g><!--entity Python ???????--><g id="elem_Python &#1086;&#1073;&#1105;&#1088;&#1090;&#1082;&#1072;"><rect fill="#F1F1F1" height="46.7999" rx="2.5" ry="2.5" style="stroke:#181818;stroke-width:0.5;" width="140" x="1212" y="41.294"/><rect fill="#F1F1F1" height="10" style="stroke:#181818;stroke-width:0.5;" width="15" x="1332" y="46.294"/><rect fill="#F1F1F1" height="2" style="stroke:#181818;stroke-width:0.5;" width="4" x="1330" y="48.294"/><rect fill="#F1F1F1" height="2" style="stroke:#181818;stroke-width:0.5;" width="4" x="1330" y="52.294"/><text fill="#000000" font-family="sans-serif" font-size="14" lengthAdjust="spacing" textLength="100" x="1227" y="74.2999">Python &#1086;&#1073;&#1105;&#1088;&#1090;&#1082;&#1072;</text></g><!--entity ????--><g id="elem_&#1057;&#1077;&#1088;&#1074;"><rect fill="#F1F1F1" height="46.7999" rx="2.5" ry="2.5" style="stroke:#181818;stroke-width:0.5;" width="73" x="637.5" y="188.094"/><rect fill="#F1F1F1" height="10" style="stroke:#181818;stroke-width:0.5;" width="15" x="690.5" y="193.094"/><rect fill="#F1F1F1" height="2" style="stroke:#181818;stroke-width:0.5;" width="4" x="688.5" y="195.094"/><rect fill="#F1F1F1" height="2" style="stroke:#181818;stroke-width:0.5;" width="4" x="688.5" y="199.094"/><text fill="#000000" font-family="sans-serif" font-size="14" lengthAdjust="spacing" textLength="33" x="652.5" y="221.0999">&#1057;&#1077;&#1088;&#1074;</text></g><!--entity http--><g id="elem_http"><ellipse cx="755" cy="211.494" fill="#F1F1F1" rx="8" ry="8" style="stroke:#181818;stroke-width:0.5;"/><text fill="#000000" font-family="sans-serif" font-size="14" lengthAdjust="spacing" textLength="24" x="743" y="241.4999">http</text></g><!--entity PSQL--><g id="elem_PSQL"><rect fill="#F1F1F1" height="46.7999" rx="2.5" ry="2.5" style="stroke:#181818;stroke-width:0.5;" width="77" x="635.5" y="340.294"/><rect fill="#F1F1F1" height="10" style="stroke:#181818;stroke-width:0.5;" width="15" x="692.5" y="345.294"/><rect fill="#F1F1F1" height="2" style="stroke:#181818;stroke-width:0.5;" width="4" x="690.5" y="347.294"/><rect fill="#F1F1F1" height="2" style="stroke:#181818;stroke-width:0.5;" width="4" x="690.5" y="351.294"/><text fill="#000000" font-family="sans-serif" font-size="14" lengthAdjust="spacing" textLength="37" x="650.5" y="373.2999">PSQL</text></g><g id="elem_GMN14"><path d="M747.5,350.894 L747.5,359.694 L712.74,363.694 L747.5,367.694 L747.5,376.494 A0,0 0 0 0 747.5,376.494 L948.5,376.494 A0,0 0 0 0 948.5,376.494 L948.5,360.894 L938.5,350.894 L747.5,350.894 A0,0 0 0 0 747.5,350.894 " fill="#FEFFDD" style="stroke:#181818;stroke-width:0.5;"/><path d="M938.5,350.894 L938.5,360.894 L948.5,360.894 L938.5,350.894 " fill="#FEFFDD" style="stroke:#181818;stroke-width:0.5;"/><text fill="#000000" font-family="sans-serif" font-size="13" lengthAdjust="spacing" textLength="180" x="753.5" y="367.971">&#1061;&#1088;&#1072;&#1085;&#1077;&#1085;&#1080;&#1077; &#1079;&#1072;&#1076;&#1072;&#1085;&#1080;&#1081; &#1080; &#1089;&#1090;&#1072;&#1090;&#1091;&#1089;&#1086;&#1074;</text></g><g id="elem_GMN19"><path d="M1072.5,350.894 L1072.5,376.494 L1289.5,376.494 L1289.5,360.894 L1279.5,350.894 L1072.5,350.894 " fill="#FEFFDD" style="stroke:#181818;stroke-width:0.5;"/><path d="M1279.5,350.894 L1279.5,360.894 L1289.5,360.894 L1279.5,350.894 " fill="#FEFFDD" style="stroke:#181818;stroke-width:1.0;"/><text fill="#000000" font-family="sans-serif" font-size="13" lengthAdjust="spacing" textLength="196" x="1078.5" y="367.971">&#1054;&#1095;&#1077;&#1088;&#1077;&#1076;&#1100; &#1079;&#1072;&#1076;&#1072;&#1085;&#1080;&#1081; &#1080; &#1088;&#1077;&#1079;&#1091;&#1083;&#1100;&#1090;&#1072;&#1090;&#1086;&#1074;</text></g><g id="elem_GMN23"><path d="M1422.5,350.894 L1422.5,376.494 L1931.5,376.494 L1931.5,360.894 L1921.5,350.894 L1422.5,350.894 " fill="#FEFFDD" style="stroke:#181818;stroke-width:0.5;"/><path d="M1921.5,350.894 L1921.5,360.894 L1931.5,360.894 L1921.5,350.894 " fill="#FEFFDD" style="stroke:#181818;stroke-width:1.0;"/><text fill="#000000" font-family="sans-serif" font-size="13" lengthAdjust="spacing" textLength="488" x="1428.5" y="367.971">&#1050;&#1101;&#1096;&#1080;&#1088;&#1086;&#1074;&#1072;&#1085;&#1080;&#1077; &#1103;&#1095;&#1077;&#1077;&#1082; &#1086;&#1095;&#1077;&#1088;&#1077;&#1076;&#1080; &#1079;&#1072;&#1076;&#1072;&#1085;&#1080;&#1081;, &#1095;&#1090;&#1086;&#1073; &#1087;&#1086;&#1085;&#1080;&#1084;&#1072;&#1090;&#1100; &#1095;&#1090;&#1086; &#1085;&#1077; &#1079;&#1072;&#1087;&#1091;&#1096;&#1080;&#1083;&#1080; &#1077;&#1097;&#1105; &#1090;&#1091;&#1076;&#1072;</text></g><!--entity Task-publisher--><g id="elem_Task-publisher"><rect fill="#F1F1F1" height="46.7999" rx="2.5" ry="2.5" style="stroke:#181818;stroke-width:0.5;" width="134" x="1676" y="188.094"/><rect fill="#F1F1F1" height="10" style="stroke:#181818;stroke-width:0.5;" width="15" x="1790" y="193.094"/><rect fill="#F1F1F1" height="2" style="stroke:#181818;stroke-width:0.5;" width="4" x="1788" y="195.094"/><rect fill="#F1F1F1" height="2" style="stroke:#181818;stroke-width:0.5;" width="4" x="1788" y="199.094"/><text fill="#000000" font-family="sans-serif" font-size="14" lengthAdjust="spacing" textLength="94" x="1691" y="221.0999">Task-publisher</text></g><g id="elem_GMN32"><path d="M1845,198.694 L1845,207.494 L1810.19,211.494 L1845,215.494 L1845,224.294 A0,0 0 0 0 1845,224.294 L2041,224.294 A0,0 0 0 0 2041,224.294 L2041,208.694 L2031,198.694 L1845,198.694 A0,0 0 0 0 1845,198.694 " fill="#FEFFDD" style="stroke:#181818;stroke-width:0.5;"/><path d="M2031,198.694 L2031,208.694 L2041,208.694 L2031,198.694 " fill="#FEFFDD" style="stroke:#181818;stroke-width:0.5;"/><text fill="#000000" font-family="sans-serif" font-size="13" lengthAdjust="spacing" textLength="175" x="1851" y="215.771">&#1055;&#1091;&#1073;&#1083;&#1080;&#1082;&#1091;&#1077;&#1090; &#1079;&#1072;&#1076;&#1072;&#1095;&#1080; &#1074; &#1086;&#1095;&#1077;&#1088;&#1077;&#1076;&#1100;</text></g><!--entity Configurator--><g id="elem_Configurator"><rect fill="#F1F1F1" height="46.7999" rx="2.5" ry="2.5" style="stroke:#181818;stroke-width:0.5;" width="119" x="461.5" y="188.094"/><rect fill="#F1F1F1" height="10" style="stroke:#181818;stroke-width:0.5;" width="15" x="560.5" y="193.094"/><rect fill="#F1F1F1" height="2" style="stroke:#181818;stroke-width:0.5;" width="4" x="558.5" y="195.094"/><rect fill="#F1F1F1" height="2" style="stroke:#181818;stroke-width:0.5;" width="4" x="558.5" y="199.094"/><text fill="#000000" font-family="sans-serif" font-size="14" lengthAdjust="spacing" textLength="79" x="476.5" y="221.0999">Configurator</text></g><g id="elem_GMN38"><path d="M22,198.694 L22,224.294 A0,0 0 0 0 22,224.294 L426,224.294 A0,0 0 0 0 426,224.294 L426,216.694 L461.17,211.494 L426,208.694 L426,208.694 L416,198.694 L22,198.694 A0,0 0 0 0 22,198.694 " fill="#FEFFDD" style="stroke:#181818;stroke-width:0.5;"/><path d="M416,198.694 L416,208.694 L426,208.694 L416,198.694 " fill="#FEFFDD" style="stroke:#181818;stroke-width:0.5;"/><text fill="#000000" font-family="sans-serif" font-size="13" lengthAdjust="spacing" textLength="383" x="28" y="215.771">&#1059;&#1087;&#1088;&#1072;&#1074;&#1083;&#1077;&#1085;&#1080;&#1077; &#1082;&#1086;&#1085;&#1092;&#1080;&#1075;&#1091;&#1088;&#1072;&#1094;&#1080;&#1077;&#1081; &#1089;&#1080;&#1089;&#1090;&#1077;&#1084;&#1099;, &#1089;&#1086;&#1079;&#1076;&#1072;&#1085;&#1080;&#1077; &#1087;&#1086;&#1083;&#1100;&#1079;&#1086;&#1074;&#1072;&#1090;&#1077;&#1083;&#1077;&#1081;</text></g><!--entity cli--><g id="elem_cli"><rect fill="#F1F1F1" height="46.7999" rx="2.5" ry="2.5" style="stroke:#181818;stroke-width:0.5;" width="53" x="189.5" y="41.294"/><rect fill="#F1F1F1" height="10" style="stroke:#181818;stroke-width:0.5;" width="15" x="222.5" y="46.294"/><rect fill="#F1F1F1" height="2" style="stroke:#181818;stroke-width:0.5;" width="4" x="220.5" y="48.294"/><rect fill="#F1F1F1" height="2" style="stroke:#181818;stroke-width:0.5;" width="4" x="220.5" y="52.294"/><text fill="#000000" font-family="sans-serif" font-size="14" lengthAdjust="spacing" textLength="13" x="204.5" y="74.2999">cli</text></g><g id="elem_GMN44"><path d="M277.5,51.894 L277.5,60.694 L242.83,64.694 L277.5,68.694 L277.5,77.494 A0,0 0 0 0 277.5,77.494 L558.5,77.494 A0,0 0 0 0 558.5,77.494 L558.5,61.894 L548.5,51.894 L277.5,51.894 A0,0 0 0 0 277.5,51.894 " fill="#FEFFDD" style="stroke:#181818;stroke-width:0.5;"/><path d="M548.5,51.894 L548.5,61.894 L558.5,61.894 L548.5,51.894 " fill="#FEFFDD" style="stroke:#181818;stroke-width:0.5;"/><text fill="#000000" font-family="sans-serif" font-size="13" lengthAdjust="spacing" textLength="260" x="283.5" y="68.971">&#1059;&#1087;&#1088;&#1072;&#1074;&#1083;&#1077;&#1085;&#1080;&#1077; &#1087;&#1086;&#1083;&#1100;&#1079;&#1086;&#1074;&#1072;&#1090;&#1077;&#1083;&#1077;&#1084; &#1095;&#1077;&#1088;&#1077;&#1079; &#1082;&#1086;&#1085;&#1089;&#1086;&#1083;&#1100;</text></g><!--entity Front--><g id="elem_Front"><rect fill="#F1F1F1" height="46.7999" rx="2.5" ry="2.5" style="stroke:#181818;stroke-width:0.5;" width="74" x="615" y="41.294"/><rect fill="#F1F1F1" height="10" style="stroke:#181818;stroke-width:0.5;" width="15" x="669" y="46.294"/><rect fill="#F1F1F1" height="2" style="stroke:#181818;stroke-width:0.5;" width="4" x="667" y="48.294"/><rect fill="#F1F1F1" height="2" style="stroke:#181818;stroke-width:0.5;" width="4" x="667" y="52.294"/><text fill="#000000" font-family="sans-serif" font-size="14" lengthAdjust="spacing" textLength="34" x="630" y="74.2999">Front</text></g><g id="elem_GMN50"><path d="M724,51.894 L724,60.694 L689.12,64.694 L724,68.694 L724,77.494 A0,0 0 0 0 724,77.494 L1022,77.494 A0,0 0 0 0 1022,77.494 L1022,61.894 L1012,51.894 L724,51.894 A0,0 0 0 0 724,51.894 " fill="#FEFFDD" style="stroke:#181818;stroke-width:0.5;"/><path d="M1012,51.894 L1012,61.894 L1022,61.894 L1012,51.894 " fill="#FEFFDD" style="stroke:#181818;stroke-width:0.5;"/><text fill="#000000" font-family="sans-serif" font-size="13" lengthAdjust="spacing" textLength="277" x="730" y="68.971">&#1059;&#1087;&#1088;&#1072;&#1074;&#1083;&#1077;&#1085;&#1080;&#1077; &#1089;&#1080;&#1089;&#1090;&#1077;&#1084;&#1086;&#1081; &#1095;&#1077;&#1088;&#1077;&#1079; vue.js &#1085;&#1072; &#1092;&#1088;&#1086;&#1085;&#1090;&#1077;</text></g><!--reverse link Selenium to Python ???????--><g id="link_Selenium_Python &#1086;&#1073;&#1105;&#1088;&#1090;&#1082;&#1072;"><path d="M1183.93,64.694 C1195.18,64.694 1200.42,64.694 1211.67,64.694 " fill="none" id="Selenium-backto-Python &#1086;&#1073;&#1105;&#1088;&#1090;&#1082;&#1072;" style="stroke:#181818;stroke-width:1.0;"/><polygon fill="#181818" points="1177.93,64.694,1186.93,68.694,1182.93,64.694,1186.93,60.694,1177.93,64.694" style="stroke:#181818;stroke-width:1.0;"/></g><!--link ???? to http--><g id="link_&#1057;&#1077;&#1088;&#1074;_http"><path d="M716.7,211.494 C728.35,211.494 728.01,211.494 739.66,211.494 " fill="none" id="&#1057;&#1077;&#1088;&#1074;-http" style="stroke:#181818;stroke-width:1.0;"/><polygon fill="#181818" points="710.7,211.494,719.7,215.494,715.7,211.494,719.7,207.494,710.7,211.494" style="stroke:#181818;stroke-width:1.0;"/><polygon fill="#181818" points="745.66,211.494,736.66,207.494,740.66,211.494,736.66,215.494,745.66,211.494" style="stroke:#181818;stroke-width:1.0;"/></g><!--link Python ??????? to http--><g id="link_Python &#1086;&#1073;&#1105;&#1088;&#1090;&#1082;&#1072;_http"><path d="M1247.46,88.434 C1232.04,97.424 1213.26,106.844 1195,112.094 C1146.19,126.134 1131.06,111.484 1081,120.094 C953.08,142.094 808.7277,191.4863 770.0977,205.1263 " fill="none" id="Python &#1086;&#1073;&#1105;&#1088;&#1090;&#1082;&#1072;-to-http" style="stroke:#181818;stroke-width:1.0;stroke-dasharray:7.0,7.0;"/><polygon fill="#181818" points="764.44,207.124,774.2583,207.8992,769.1547,205.4592,771.5947,200.3557,764.44,207.124" style="stroke:#181818;stroke-width:1.0;"/><text fill="#000000" font-family="sans-serif" font-size="13" lengthAdjust="spacing" textLength="121" x="1082" y="133.171">&#1047;&#1072;&#1076;&#1072;&#1085;&#1080;&#1077; &#1074;&#1099;&#1087;&#1086;&#1083;&#1085;&#1077;&#1085;&#1086;</text></g><!--link ???? to PSQL--><g id="link_&#1057;&#1077;&#1088;&#1074;_PSQL"><path d="M674,235.304 C674,263.704 674,305.894 674,334.164 " fill="none" id="&#1057;&#1077;&#1088;&#1074;-to-PSQL" style="stroke:#181818;stroke-width:1.0;stroke-dasharray:7.0,7.0;"/><polygon fill="#181818" points="674,340.164,678,331.164,674,335.164,670,331.164,674,340.164" style="stroke:#181818;stroke-width:1.0;"/><text fill="#000000" font-family="sans-serif" font-size="13" lengthAdjust="spacing" textLength="80" x="675" y="279.971">SQL &#1079;&#1072;&#1087;&#1088;&#1086;&#1089;&#1099;</text></g><!--reverse link Python ??????? to RabbitMQ--><g id="link_Python &#1086;&#1073;&#1105;&#1088;&#1090;&#1082;&#1072;_RabbitMQ"><path d="M1266.0357,93.6323 C1242.7057,137.1623 1203.67,227.874 1252,283.894 C1267.85,302.264 1287.89,275.754 1306,291.894 C1308.945,294.519 1311.4553,297.5465 1313.593,300.8405 C1314.6619,302.4875 1315.6376,304.2012 1316.5279,305.9644 C1316.7505,306.4053 1316.9677,306.8492 1317.1798,307.2959 C1317.2328,307.4076 1317.2855,307.5195 1317.3378,307.6315 " fill="none" id="Python &#1086;&#1073;&#1105;&#1088;&#1090;&#1082;&#1072;-backto-RabbitMQ" style="stroke:#181818;stroke-width:1.0;stroke-dasharray:7.0,7.0;"/><polygon fill="#181818" points="1268.87,88.344,1261.093,94.387,1266.5081,92.7509,1268.1441,98.1661,1268.87,88.344" style="stroke:#181818;stroke-width:1.0;"/><text fill="#000000" font-family="sans-serif" font-size="13" lengthAdjust="spacing" textLength="88" x="1244.02" y="216.071">&#1047;&#1072;&#1076;&#1072;&#1085;&#1080;&#1077; &#1074;&#1079;&#1103;&#1090;&#1086;</text></g><!--link RabbitMQ to GMN19--><g id="link_RabbitMQ_GMN19"><path d="M1324.18,363.694 C1312.73,363.694 1301.29,363.694 1289.84,363.694 " fill="none" id="RabbitMQ-GMN19" style="stroke:#181818;stroke-width:1.0;stroke-dasharray:7.0,7.0;"/></g><!--link Redis to GMN23--><g id="link_Redis_GMN23"><path d="M1966.18,363.694 C1954.75,363.694 1943.31,363.694 1931.88,363.694 " fill="none" id="Redis-GMN23" style="stroke:#181818;stroke-width:1.0;stroke-dasharray:7.0,7.0;"/></g><!--link Task-publisher to PSQL--><g id="link_Task-publisher_PSQL"><path d="M1675.55,221.214 C1593.53,231.544 1450.82,248.644 1328,258.894 C1294.84,261.664 759.54,276.574 730,291.894 C709.97,302.284 697.7418,318.1831 688.2618,334.6631 " fill="none" id="Task-publisher-to-PSQL" style="stroke:#181818;stroke-width:1.0;stroke-dasharray:7.0,7.0;"/><polygon fill="#181818" points="685.27,339.864,693.2249,334.0572,687.7631,335.5299,686.2904,330.0681,685.27,339.864" style="stroke:#181818;stroke-width:1.0;"/><text fill="#000000" font-family="sans-serif" font-size="13" lengthAdjust="spacing" textLength="242" x="1112.69" y="279.971">SQL &#1079;&#1072;&#1087;&#1088;&#1086;&#1089;&#1099;, &#1082;&#1072;&#1082;&#1080;&#1077; &#1079;&#1072;&#1076;&#1072;&#1095;&#1080; &#1085;&#1077; &#1089;&#1076;&#1077;&#1083;&#1072;&#1085;&#1099;</text></g><!--reverse link Task-publisher to Redis--><g id="link_Task-publisher_Redis"><path d="M1742.4098,241.1979 C1743.1398,257.4179 1746.82,272.354 1761,283.894 C1777.04,296.954 1930.78,279.064 1947,291.894 C1950.105,294.3502 1952.7513,297.2498 1955.0043,300.4492 C1956.1309,302.0489 1957.1591,303.7236 1958.0973,305.4554 C1958.3318,305.8883 1958.5607,306.3248 1958.7841,306.7646 C1958.8958,306.9845 1959.0062,307.2052 1959.1151,307.4267 C1959.1696,307.5374 1959.2238,307.6484 1959.2776,307.7595 " fill="none" id="Task-publisher-backto-Redis" style="stroke:#181818;stroke-width:1.0;stroke-dasharray:7.0,7.0;"/><polygon fill="#181818" points="1742.14,235.204,1738.5487,244.3747,1742.3648,240.1989,1746.5406,244.015,1742.14,235.204" style="stroke:#181818;stroke-width:1.0;"/><text fill="#000000" font-family="sans-serif" font-size="13" lengthAdjust="spacing" textLength="213" x="1762" y="279.971">&#1055;&#1088;&#1086;&#1074;&#1077;&#1088;&#1082;&#1072;, &#1095;&#1090;&#1086; &#1079;&#1072;&#1076;&#1072;&#1095;&#1080; &#1085;&#1077; &#1079;&#1072;&#1087;&#1091;&#1096;&#1077;&#1085;&#1099;</text></g><!--link Task-publisher to Redis--><g id="link_Task-publisher_Redis"><path d="M1776.64,235.394 C1791.68,244.404 1810.05,253.804 1828,258.894 C1844.27,263.504 1968.36,254.624 1980,266.894 C1994.555,282.234 1991.6325,305.6815 1984.9113,325.539 C1983.2309,330.5034 1981.3132,335.2434 1979.3718,339.5762 C1978.4011,341.7426 1977.4244,343.8073 1976.4686,345.7473 C1975.9907,346.7173 1978.2566,342.3176 1977.7924,343.2225 " fill="none" id="Task-publisher-to-Redis" style="stroke:#181818;stroke-width:1.0;stroke-dasharray:7.0,7.0;"/><polygon fill="#181818" points="1975.0538,348.561,1982.7208,342.379,1977.336,344.1122,1975.6028,338.7274,1975.0538,348.561" style="stroke:#181818;stroke-width:1.0;"/><text fill="#000000" font-family="sans-serif" font-size="13" lengthAdjust="spacing" textLength="135" x="1989.49" y="279.971">&#1043;&#1086;&#1074;&#1086;&#1088;&#1080;&#1090; &#1095;&#1090;&#1086; &#1079;&#1072;&#1087;&#1091;&#1096;&#1080;&#1083;&#1080;</text></g><!--link Task-publisher to RabbitMQ--><g id="link_Task-publisher_RabbitMQ"><path d="M1678.65,235.334 C1622.49,255.104 1547.73,280.974 1533,283.894 C1505.48,289.344 1432.97,281.284 1407,291.894 C1385.41,300.714 1365.4975,317.6015 1350.7025,332.6715 C1347.0037,336.439 1343.6248,340.0929 1340.6195,343.4787 C1339.1169,345.1717 1337.7076,346.7976 1336.3985,348.3372 C1335.7439,349.107 1335.1144,349.8552 1334.5107,350.5794 C1334.2089,350.9416 1333.9135,351.2977 1333.6247,351.6475 C1333.4803,351.8224 1337.1467,347.3599 1337.0056,347.5317 " fill="none" id="Task-publisher-to-RabbitMQ" style="stroke:#181818;stroke-width:1.0;stroke-dasharray:7.0,7.0;"/><polygon fill="#181818" points="1333.1964,352.1674,1342.0007,347.7532,1336.3707,348.3043,1335.8196,342.6743,1333.1964,352.1674" style="stroke:#181818;stroke-width:1.0;"/><text fill="#000000" font-family="sans-serif" font-size="13" lengthAdjust="spacing" textLength="150" x="1584.7" y="279.971">&#1055;&#1091;&#1096;&#1080;&#1090; &#1079;&#1072;&#1076;&#1072;&#1095;&#1080; &#1074; &#1086;&#1095;&#1077;&#1088;&#1077;&#1076;&#1100;</text></g><!--link Configurator to PSQL--><g id="link_Configurator_PSQL"><path d="M539.87,235.354 C552.03,249.714 568.42,268.374 584,283.894 C604.01,303.824 623.5631,320.968 641.8031,336.268 " fill="none" id="Configurator-to-PSQL" style="stroke:#181818;stroke-width:1.0;stroke-dasharray:7.0,7.0;"/><polygon fill="#181818" points="646.4,340.124,642.0753,331.2754,642.5692,336.9107,636.934,337.4046,646.4,340.124" style="stroke:#181818;stroke-width:1.0;"/><text fill="#000000" font-family="sans-serif" font-size="13" lengthAdjust="spacing" textLength="80" x="585" y="279.971">SQL &#1079;&#1072;&#1087;&#1088;&#1086;&#1089;&#1099;</text></g><!--link cli to http--><g id="link_cli_http"><path d="M231.91,88.504 C239.37,97.384 249.04,106.714 260,112.094 C359.04,160.724 396.92,129.534 507,137.094 C519.26,137.934 717.91,138.074 728,145.094 C747.16,158.424 752.0815,182.0313 753.6915,196.3913 " fill="none" id="cli-to-http" style="stroke:#181818;stroke-width:1.0;stroke-dasharray:7.0,7.0;"/><polygon fill="#181818" points="754.36,202.354,757.3323,192.9643,753.8029,197.3851,749.3821,193.8557,754.36,202.354" style="stroke:#181818;stroke-width:1.0;"/><text fill="#000000" font-family="sans-serif" font-size="13" lengthAdjust="spacing" textLength="140" x="508" y="133.171">&#1059;&#1087;&#1088;&#1072;&#1074;&#1083;&#1103;&#1102;&#1097;&#1080;&#1077; &#1079;&#1072;&#1087;&#1088;&#1086;&#1089;&#1099;</text></g><!--link Front to http--><g id="link_Front_http"><path d="M650.78,88.314 C651.23,104.274 654.7,124.914 668,137.094 C687.84,155.264 706.68,128.684 728,145.094 C746.3,159.174 751.4906,181.8961 753.3806,196.1361 " fill="none" id="Front-to-http" style="stroke:#181818;stroke-width:1.0;stroke-dasharray:7.0,7.0;"/><polygon fill="#181818" points="754.17,202.084,756.9511,192.6359,753.5121,197.1274,749.0206,193.6885,754.17,202.084" style="stroke:#181818;stroke-width:1.0;"/><text fill="#000000" font-family="sans-serif" font-size="13" lengthAdjust="spacing" textLength="139" x="669" y="133.171">&#1091;&#1087;&#1088;&#1072;&#1074;&#1083;&#1103;&#1102;&#1097;&#1080;&#1077; &#1079;&#1072;&#1087;&#1088;&#1086;&#1089;&#1099;</text></g><!--SRC=[dLHTQnfH47ttLmnvDlw04WgbK5femJH27yG7JLRTQbpPNGkX5AA6fY6s9UIXq8U6KlgkrcNzYlaBC_-eCtVTzQvPJUdAejwPEVUScNDlitXOArOCs7bZsJN3te7tAU0dVs3KZORPEYx0tYxaioTkrMe0Bd10LtHA7PnYlv3wa4erm_hdkLmMdcHVH0Zu4pqwnQ4WF8QgwpQ3zMGio6I297W4-0txEEBt5iVe0Gxf4kyuVyOB7h-BsCPPot4hjd6m_p9XQq7DPpbMO5p-0lGPzuw32shJfKflMAu1jbcfkc2Lbzag80_-vjp-ScF5njV8JG37m40Tx5E7kjHcbaDLQpIE572CwkjYgMIwh_OZeXjwiPV9G9YRr0_qwIldBfBeXtMQX1zqhlhXuOXwIG8av5CNPzGBf3mWmpWodL33-lOIq_R-Jf_f4uwbuSmxbC3qcH9_fgnznOwvnDcbWSuLcm4e1yZYNFMwjuo0Z2QSQbUsOfimZ4SNT0Ko547Rh2LNT6hGR9NgfbFLx2_Bkz5ou2CnHgABqY1ZurVt1wiQ1-JO5IDMDnDHIylTmrSJbzR9k6-MtPAkC70wadeFMjFjRGONyhgTRe96KMSDSHWR1lMse8LKhnNH1LS8dCvJcqQIJzPGLuPXSZYGAfpoB-_VI2QEzgdLA9kLbcs0S-Aund4qt31GTAs7HhkYNZVA0VDOzOhtBrNKvsxCLdV5L3nBP_pd3xU3m_HH0dpis1HZTN5uE1S7gQl3rq-vkl6enulgvAXKWPviKLmt8v67TJD-gMe4-VXzeOkLNRVUXmBqWCnDLESGJSeFcz4ESZUBU6PR3PSZaHAr4DF2nlW_BG7KTZNwP9ZhHDVmhcLatZfozlf0P-gOtahccfg_]--></g></svg>