<?xml version="1.0" encoding="us-ascii" standalone="no"?><svg xmlns="http://www.w3.org/2000/svg" xmlns:xlink="http://www.w3.org/1999/xlink" contentStyleType="text/css" height="424px" preserveAspectRatio="none" style="width:900px;height:424px;background:#FFFFFF;" version="1.1" viewBox="0 0 900 424" width="900px" zoomAndPan="magnify"><defs/><g><!--cluster Worker--><g id="cluster_Worker"><path d="M8.5,314.602 L61.5,314.602 A3.75,3.75 0 0 1 64,317.102 L71,339.6699 L772.5,339.6699 A2.5,2.5 0 0 1 775,342.1699 L775,415.102 A2.5,2.5 0 0 1 772.5,417.602 L8.5,417.602 A2.5,2.5 0 0 1 6,415.102 L6,317.102 A2.5,2.5 0 0 1 8.5,314.602 " fill="none" style="stroke:#000000;stroke-width:1.5;"/><line style="stroke:#000000;stroke-width:1.5;" x1="6" x2="71" y1="339.6699" y2="339.6699"/><text fill="#000000" font-family="sans-serif" font-size="14" font-weight="bold" lengthAdjust="spacing" textLength="52" x="10" y="331.5679">Worker</text></g><!--cluster Core--><g id="cluster_Core"><path d="M48.5,160.602 L81.5,160.602 A3.75,3.75 0 0 1 84,163.102 L91,185.6699 L626.5,185.6699 A2.5,2.5 0 0 1 629,188.1699 L629,261.102 A2.5,2.5 0 0 1 626.5,263.602 L48.5,263.602 A2.5,2.5 0 0 1 46,261.102 L46,163.102 A2.5,2.5 0 0 1 48.5,160.602 " fill="none" style="stroke:#000000;stroke-width:1.5;"/><line style="stroke:#000000;stroke-width:1.5;" x1="46" x2="91" y1="185.6699" y2="185.6699"/><text fill="#000000" font-family="sans-serif" font-size="14" font-weight="bold" lengthAdjust="spacing" textLength="32" x="50" y="177.5679">Core</text></g><!--cluster Cli--><g id="cluster_Cli"><path d="M11.5,6.602 L29.5,6.602 A3.75,3.75 0 0 1 32,9.102 L39,31.6699 L422.5,31.6699 A2.5,2.5 0 0 1 425,34.1699 L425,107.102 A2.5,2.5 0 0 1 422.5,109.602 L11.5,109.602 A2.5,2.5 0 0 1 9,107.102 L9,9.102 A2.5,2.5 0 0 1 11.5,6.602 " fill="none" style="stroke:#000000;stroke-width:1.5;"/><line style="stroke:#000000;stroke-width:1.5;" x1="9" x2="39" y1="31.6699" y2="31.6699"/><text fill="#000000" font-family="sans-serif" font-size="14" font-weight="bold" lengthAdjust="spacing" textLength="17" x="13" y="23.5679">Cli</text></g><!--cluster Frontend--><g id="cluster_Frontend"><path d="M451.5,6.602 L516.5,6.602 A3.75,3.75 0 0 1 519,9.102 L526,31.6699 L890.5,31.6699 A2.5,2.5 0 0 1 893,34.1699 L893,107.102 A2.5,2.5 0 0 1 890.5,109.602 L451.5,109.602 A2.5,2.5 0 0 1 449,107.102 L449,9.102 A2.5,2.5 0 0 1 451.5,6.602 " fill="none" style="stroke:#000000;stroke-width:1.5;"/><line style="stroke:#000000;stroke-width:1.5;" x1="449" x2="526" y1="31.6699" y2="31.6699"/><text fill="#000000" font-family="sans-serif" font-size="14" font-weight="bold" lengthAdjust="spacing" textLength="64" x="453" y="23.5679">Frontend</text></g><!--entity Selenium--><g id="elem_Selenium"><rect fill="#F1F1F1" height="49.0679" rx="2.5" ry="2.5" style="stroke:#181818;stroke-width:0.5;" width="103" x="22.5" y="352.602"/><rect fill="#F1F1F1" height="10" style="stroke:#181818;stroke-width:0.5;" width="15" x="105.5" y="357.602"/><rect fill="#F1F1F1" height="2" style="stroke:#181818;stroke-width:0.5;" width="4" x="103.5" y="359.602"/><rect fill="#F1F1F1" height="2" style="stroke:#181818;stroke-width:0.5;" width="4" x="103.5" y="363.602"/><text fill="#000000" font-family="sans-serif" font-size="14" lengthAdjust="spacing" textLength="63" x="37.5" y="387.5679">Selenium</text></g><!--entity Python ???????--><g id="elem_Python &#1086;&#1073;&#1105;&#1088;&#1090;&#1082;&#1072;"><rect fill="#F1F1F1" height="49.0679" rx="2.5" ry="2.5" style="stroke:#181818;stroke-width:0.5;" width="145" x="160.5" y="352.602"/><rect fill="#F1F1F1" height="10" style="stroke:#181818;stroke-width:0.5;" width="15" x="285.5" y="357.602"/><rect fill="#F1F1F1" height="2" style="stroke:#181818;stroke-width:0.5;" width="4" x="283.5" y="359.602"/><rect fill="#F1F1F1" height="2" style="stroke:#181818;stroke-width:0.5;" width="4" x="283.5" y="363.602"/><text fill="#000000" font-family="sans-serif" font-size="14" lengthAdjust="spacing" textLength="105" x="175.5" y="387.5679">Python &#1086;&#1073;&#1105;&#1088;&#1090;&#1082;&#1072;</text></g><g id="elem_GMN6"><path d="M340.5,363.102 L340.5,373.102 L305.75,377.102 L340.5,381.102 L340.5,390.808 A0,0 0 0 0 340.5,390.808 L759.5,390.808 A0,0 0 0 0 759.5,390.808 L759.5,373.102 L749.5,363.102 L340.5,363.102 A0,0 0 0 0 340.5,363.102 " fill="#FEFFDD" style="stroke:#181818;stroke-width:0.5;"/><path d="M749.5,363.102 L749.5,373.102 L759.5,373.102 L749.5,363.102 " fill="#FEFFDD" style="stroke:#181818;stroke-width:0.5;"/><text fill="#000000" font-family="sans-serif" font-size="13" lengthAdjust="spacing" textLength="398" x="346.5" y="381.999">&#1047;&#1072;&#1087;&#1091;&#1089;&#1082;&#1072;&#1077;&#1090; Selenium, &#1080; &#1091;&#1087;&#1088;&#1072;&#1074;&#1083;&#1103;&#1077;&#1090; &#1080;&#1084; &#1079;&#1072;&#1087;&#1088;&#1072;&#1096;&#1080;&#1074;&#1072;&#1103; &#1076;&#1072;&#1085;&#1085;&#1099;&#1077; &#1091; &#1103;&#1076;&#1088;&#1072;</text></g><!--entity grpc--><g id="elem_grpc"><ellipse cx="233" cy="223.102" fill="#F1F1F1" rx="8" ry="8" style="stroke:#181818;stroke-width:0.5;"/><text fill="#000000" font-family="sans-serif" font-size="14" lengthAdjust="spacing" textLength="31" x="217.5" y="255.0679">grpc</text></g><g id="elem_GMN12"><path d="M277.5,209.102 L277.5,219.102 L242.11,223.102 L277.5,227.102 L277.5,236.808 A0,0 0 0 0 277.5,236.808 L612.5,236.808 A0,0 0 0 0 612.5,236.808 L612.5,219.102 L602.5,209.102 L277.5,209.102 A0,0 0 0 0 277.5,209.102 " fill="#FEFFDD" style="stroke:#181818;stroke-width:0.5;"/><path d="M602.5,209.102 L602.5,219.102 L612.5,219.102 L602.5,209.102 " fill="#FEFFDD" style="stroke:#181818;stroke-width:0.5;"/><text fill="#000000" font-family="sans-serif" font-size="13" lengthAdjust="spacing" textLength="314" x="283.5" y="227.999">&#1054;&#1090;&#1074;&#1077;&#1095;&#1072;&#1077;&#1090; &#1079;&#1072; &#1074;&#1079;&#1072;&#1080;&#1084;&#1086;&#1076;&#1077;&#1081;&#1089;&#1090;&#1074;&#1080;&#1077; &#1084;&#1077;&#1078;&#1076;&#1091; Worker &#1080; Core</text></g><!--entity ????--><g id="elem_&#1057;&#1077;&#1088;&#1074;"><rect fill="#F1F1F1" height="49.0679" rx="2.5" ry="2.5" style="stroke:#181818;stroke-width:0.5;" width="74" x="62" y="198.602"/><rect fill="#F1F1F1" height="10" style="stroke:#181818;stroke-width:0.5;" width="15" x="116" y="203.602"/><rect fill="#F1F1F1" height="2" style="stroke:#181818;stroke-width:0.5;" width="4" x="114" y="205.602"/><rect fill="#F1F1F1" height="2" style="stroke:#181818;stroke-width:0.5;" width="4" x="114" y="209.602"/><text fill="#000000" font-family="sans-serif" font-size="14" lengthAdjust="spacing" textLength="34" x="77" y="233.5679">&#1057;&#1077;&#1088;&#1074;</text></g><!--entity http--><g id="elem_http"><ellipse cx="180" cy="223.102" fill="#F1F1F1" rx="8" ry="8" style="stroke:#181818;stroke-width:0.5;"/><text fill="#000000" font-family="sans-serif" font-size="14" lengthAdjust="spacing" textLength="28" x="166" y="255.0679">http</text></g><!--entity cli--><g id="elem_cli"><rect fill="#F1F1F1" height="49.0679" rx="2.5" ry="2.5" style="stroke:#181818;stroke-width:0.5;" width="55" x="25.5" y="44.602"/><rect fill="#F1F1F1" height="10" style="stroke:#181818;stroke-width:0.5;" width="15" x="60.5" y="49.602"/><rect fill="#F1F1F1" height="2" style="stroke:#181818;stroke-width:0.5;" width="4" x="58.5" y="51.602"/><rect fill="#F1F1F1" height="2" style="stroke:#181818;stroke-width:0.5;" width="4" x="58.5" y="55.602"/><text fill="#000000" font-family="sans-serif" font-size="14" lengthAdjust="spacing" textLength="15" x="40.5" y="79.5679">cli</text></g><g id="elem_GMN22"><path d="M115.5,55.102 L115.5,65.102 L80.76,69.102 L115.5,73.102 L115.5,82.808 A0,0 0 0 0 115.5,82.808 L408.5,82.808 A0,0 0 0 0 408.5,82.808 L408.5,65.102 L398.5,55.102 L115.5,55.102 A0,0 0 0 0 115.5,55.102 " fill="#FEFFDD" style="stroke:#181818;stroke-width:0.5;"/><path d="M398.5,55.102 L398.5,65.102 L408.5,65.102 L398.5,55.102 " fill="#FEFFDD" style="stroke:#181818;stroke-width:0.5;"/><text fill="#000000" font-family="sans-serif" font-size="13" lengthAdjust="spacing" textLength="272" x="121.5" y="73.999">&#1059;&#1087;&#1088;&#1072;&#1074;&#1083;&#1077;&#1085;&#1080;&#1077; &#1087;&#1086;&#1083;&#1100;&#1079;&#1086;&#1074;&#1072;&#1090;&#1077;&#1083;&#1077;&#1084; &#1095;&#1077;&#1088;&#1077;&#1079; &#1082;&#1086;&#1085;&#1089;&#1086;&#1083;&#1100;</text></g><!--entity Front--><g id="elem_Front"><rect fill="#F1F1F1" height="49.0679" rx="2.5" ry="2.5" style="stroke:#181818;stroke-width:0.5;" width="75" x="464.5" y="44.602"/><rect fill="#F1F1F1" height="10" style="stroke:#181818;stroke-width:0.5;" width="15" x="519.5" y="49.602"/><rect fill="#F1F1F1" height="2" style="stroke:#181818;stroke-width:0.5;" width="4" x="517.5" y="51.602"/><rect fill="#F1F1F1" height="2" style="stroke:#181818;stroke-width:0.5;" width="4" x="517.5" y="55.602"/><text fill="#000000" font-family="sans-serif" font-size="14" lengthAdjust="spacing" textLength="35" x="479.5" y="79.5679">Front</text></g><g id="elem_GMN28"><path d="M575,55.102 L575,65.102 L539.62,69.102 L575,73.102 L575,82.808 A0,0 0 0 0 575,82.808 L877,82.808 A0,0 0 0 0 877,82.808 L877,65.102 L867,55.102 L575,55.102 A0,0 0 0 0 575,55.102 " fill="#FEFFDD" style="stroke:#181818;stroke-width:0.5;"/><path d="M867,55.102 L867,65.102 L877,65.102 L867,55.102 " fill="#FEFFDD" style="stroke:#181818;stroke-width:0.5;"/><text fill="#000000" font-family="sans-serif" font-size="13" lengthAdjust="spacing" textLength="281" x="581" y="73.999">&#1059;&#1087;&#1088;&#1072;&#1074;&#1083;&#1077;&#1085;&#1080;&#1077; &#1089;&#1080;&#1089;&#1090;&#1077;&#1084;&#1086;&#1081; &#1095;&#1077;&#1088;&#1077;&#1079; vue.js &#1085;&#1072; &#1092;&#1088;&#1086;&#1085;&#1090;&#1077;</text></g><!--reverse link Selenium to Python ???????--><g id="link_Selenium_Python &#1086;&#1073;&#1105;&#1088;&#1090;&#1082;&#1072;"><path d="M131.55,377.102 C143.16,377.102 148.78,377.102 160.39,377.102 " fill="none" id="Selenium-backto-Python &#1086;&#1073;&#1105;&#1088;&#1090;&#1082;&#1072;" style="stroke:#181818;stroke-width:1.0;"/><polygon fill="#181818" points="125.55,377.102,134.55,381.102,130.55,377.102,134.55,373.102,125.55,377.102" style="stroke:#181818;stroke-width:1.0;"/></g><!--reverse link grpc to Python ???????--><g id="link_grpc_Python &#1086;&#1073;&#1105;&#1088;&#1090;&#1082;&#1072;"><path d="M233,238.272 C233,260.662 233,317.602 233,352.332 " fill="none" id="grpc-backto-Python &#1086;&#1073;&#1105;&#1088;&#1090;&#1082;&#1072;" style="stroke:#181818;stroke-width:1.0;stroke-dasharray:7.0,7.0;"/><polygon fill="#181818" points="233,232.272,229,241.272,233,237.272,237,241.272,233,232.272" style="stroke:#181818;stroke-width:1.0;"/><text fill="#000000" font-family="sans-serif" font-size="13" lengthAdjust="spacing" textLength="53" x="234" y="294.499">&#1047;&#1072;&#1076;&#1072;&#1085;&#1080;&#1077;</text></g><!--link ???? to grpc--><g id="link_&#1057;&#1077;&#1088;&#1074;_grpc"><path d="M112.156,192.9675 C127.056,162.0675 153.87,120.342 189.5,135.102 C220.83,148.082 229.0161,188.0958 231.4261,207.9258 " fill="none" id="&#1057;&#1077;&#1088;&#1074;-grpc" style="stroke:#181818;stroke-width:1.0;"/><polygon fill="#181818" points="109.55,198.372,117.0621,192.0026,111.7217,193.8682,109.8561,188.5279,109.55,198.372" style="stroke:#181818;stroke-width:1.0;"/><polygon fill="#181818" points="232.15,213.882,235.035,204.4651,231.5468,208.9185,227.0934,205.4303,232.15,213.882" style="stroke:#181818;stroke-width:1.0;"/></g><!--link ???? to http--><g id="link_&#1057;&#1077;&#1088;&#1074;_http"><path d="M142.02,223.102 C153.59,223.102 153.16,223.102 164.72,223.102 " fill="none" id="&#1057;&#1077;&#1088;&#1074;-http" style="stroke:#181818;stroke-width:1.0;"/><polygon fill="#181818" points="136.02,223.102,145.02,227.102,141.02,223.102,145.02,219.102,136.02,223.102" style="stroke:#181818;stroke-width:1.0;"/><polygon fill="#181818" points="170.72,223.102,161.72,219.102,165.72,223.102,161.72,227.102,170.72,223.102" style="stroke:#181818;stroke-width:1.0;"/></g><!--link cli to http--><g id="link_cli_http"><path d="M73.42,93.992 C80.77,101.942 89.38,110.552 98,117.602 C120.72,136.182 135.43,129.872 154,152.602 C169.32,171.352 175.0781,194.1503 177.6281,208.0603 " fill="none" id="cli-to-http" style="stroke:#181818;stroke-width:1.0;stroke-dasharray:7.0,7.0;"/><polygon fill="#181818" points="178.71,213.962,181.0216,204.3882,177.8084,209.0439,173.1527,205.8308,178.71,213.962" style="stroke:#181818;stroke-width:1.0;"/><text fill="#000000" font-family="sans-serif" font-size="13" lengthAdjust="spacing" textLength="147" x="146" y="140.499">&#1059;&#1087;&#1088;&#1072;&#1074;&#1083;&#1103;&#1102;&#1097;&#1080;&#1077; &#1079;&#1072;&#1087;&#1088;&#1086;&#1089;&#1099;</text></g><!--link Front to http--><g id="link_Front_http"><path d="M469.19,93.732 C455.99,102.312 440.29,111.422 425,117.602 C373.12,138.592 357.34,136.232 302,144.602 C281.05,147.772 223.97,139.912 207,152.602 C187.1,167.482 182.4097,193.1672 181.0397,208.0572 " fill="none" id="Front-to-http" style="stroke:#181818;stroke-width:1.0;stroke-dasharray:7.0,7.0;"/><polygon fill="#181818" points="180.49,214.032,185.2978,205.4363,180.9481,209.053,177.3314,204.7034,180.49,214.032" style="stroke:#181818;stroke-width:1.0;"/><text fill="#000000" font-family="sans-serif" font-size="13" lengthAdjust="spacing" textLength="146" x="403" y="140.499">&#1091;&#1087;&#1088;&#1072;&#1074;&#1083;&#1103;&#1102;&#1097;&#1080;&#1077; &#1079;&#1072;&#1087;&#1088;&#1086;&#1089;&#1099;</text></g><!--SRC=[bPBBIiDG48RtUOgXQyq3I74Zk1PSk2XTb7fiOsiIOYg826qgg5Gihjm9uWlKqDZqbhx2p1ivvvocQQGjU3Q1kVxV_74hrKQb9g1mvdWDuHNWpW1-fLFH5BRLkYf3SHzA9xT-tR414_ocDsfJW1CSb5MbxVW2FAjMzy6vs5af7xxZ01VKfOwCOqG1f9ls06EWBcVRd0bnIdsLnnXdW2FLnnbwua38tpxWa8Dpd5CF8-u4RXZA4hLDsETAct5l66uAUUHu8aMiUMuLYgQvJJCSQBLwIOpH1bmv8sFxuCwGDJykoQHeu8ZKpX0yVuWHZgcZwdWYS3327rRT1Nr_UGCfCe-W7C5F7jh6K3foc6t-4w_xlfj7RbehKwjDgmocgQiatzVwjUcLdhMgzDW9I-rjSbaEohZNfZ3ENCzOCEwKNdXMekmAE2NJC-3xIC4HZe0FdR1_7LsxtRTZpx5zpgn8L237alzp_i6YH-scOOMniYrIDexN6MvQmhoy1guS03t8JKmKB7-NZEON]--></g></svg>