<?xml version="1.0" encoding="us-ascii" standalone="no"?><svg xmlns="http://www.w3.org/2000/svg" xmlns:xlink="http://www.w3.org/1999/xlink" contentStyleType="text/css" height="427px" preserveAspectRatio="none" style="width:1252px;height:427px;background:#FFFFFF;" version="1.1" viewBox="0 0 1252 427" width="1252px" zoomAndPan="magnify"><defs/><g><!--cluster Worker--><g id="cluster_Worker"><path d="M8.5,6.602 L61.5,6.602 A3.75,3.75 0 0 1 64,9.102 L71,31.6699 L319.5,31.6699 A2.5,2.5 0 0 1 322,34.1699 L322,107.102 A2.5,2.5 0 0 1 319.5,109.602 L8.5,109.602 A2.5,2.5 0 0 1 6,107.102 L6,9.102 A2.5,2.5 0 0 1 8.5,6.602 " fill="none" style="stroke:#000000;stroke-width:1.5;"/><line style="stroke:#000000;stroke-width:1.5;" x1="6" x2="71" y1="31.6699" y2="31.6699"/><text fill="#000000" font-family="sans-serif" font-size="14" font-weight="bold" lengthAdjust="spacing" textLength="52" x="10" y="23.5679">Worker</text></g><!--cluster Core--><g id="cluster_Core"><path d="M313.5,160.602 L346.5,160.602 A3.75,3.75 0 0 1 349,163.102 L356,185.6699 L467.5,185.6699 A2.5,2.5 0 0 1 470,188.1699 L470,261.102 A2.5,2.5 0 0 1 467.5,263.602 L313.5,263.602 A2.5,2.5 0 0 1 311,261.102 L311,163.102 A2.5,2.5 0 0 1 313.5,160.602 " fill="none" style="stroke:#000000;stroke-width:1.5;"/><line style="stroke:#000000;stroke-width:1.5;" x1="311" x2="356" y1="185.6699" y2="185.6699"/><text fill="#000000" font-family="sans-serif" font-size="14" font-weight="bold" lengthAdjust="spacing" textLength="32" x="315" y="177.5679">Core</text></g><!--cluster RabbitMQ--><g id="cluster_RabbitMQ"><path d="M250.5,322.602 L320.5,322.602 A3.75,3.75 0 0 1 323,325.102 L330,347.6699 L536.5,347.6699 A2.5,2.5 0 0 1 539,350.1699 L539,418.102 A2.5,2.5 0 0 1 536.5,420.602 L250.5,420.602 A2.5,2.5 0 0 1 248,418.102 L248,325.102 A2.5,2.5 0 0 1 250.5,322.602 " fill="none" style="stroke:#000000;stroke-width:1.5;"/><line style="stroke:#000000;stroke-width:1.5;" x1="248" x2="330" y1="347.6699" y2="347.6699"/><text fill="#000000" font-family="sans-serif" font-size="14" font-weight="bold" lengthAdjust="spacing" textLength="69" x="252" y="339.5679">RabbitMQ</text></g><!--cluster Cli--><g id="cluster_Cli"><path d="M363.5,6.602 L381.5,6.602 A3.75,3.75 0 0 1 384,9.102 L391,31.6699 L774.5,31.6699 A2.5,2.5 0 0 1 777,34.1699 L777,107.102 A2.5,2.5 0 0 1 774.5,109.602 L363.5,109.602 A2.5,2.5 0 0 1 361,107.102 L361,9.102 A2.5,2.5 0 0 1 363.5,6.602 " fill="none" style="stroke:#000000;stroke-width:1.5;"/><line style="stroke:#000000;stroke-width:1.5;" x1="361" x2="391" y1="31.6699" y2="31.6699"/><text fill="#000000" font-family="sans-serif" font-size="14" font-weight="bold" lengthAdjust="spacing" textLength="17" x="365" y="23.5679">Cli</text></g><!--cluster Frontend--><g id="cluster_Frontend"><path d="M803.5,6.602 L868.5,6.602 A3.75,3.75 0 0 1 871,9.102 L878,31.6699 L1242.5,31.6699 A2.5,2.5 0 0 1 1245,34.1699 L1245,107.102 A2.5,2.5 0 0 1 1242.5,109.602 L803.5,109.602 A2.5,2.5 0 0 1 801,107.102 L801,9.102 A2.5,2.5 0 0 1 803.5,6.602 " fill="none" style="stroke:#000000;stroke-width:1.5;"/><line style="stroke:#000000;stroke-width:1.5;" x1="801" x2="878" y1="31.6699" y2="31.6699"/><text fill="#000000" font-family="sans-serif" font-size="14" font-weight="bold" lengthAdjust="spacing" textLength="64" x="805" y="23.5679">Frontend</text></g><!--entity Selenium--><g id="elem_Selenium"><rect fill="#F1F1F1" height="49.0679" rx="2.5" ry="2.5" style="stroke:#181818;stroke-width:0.5;" width="103" x="22.5" y="44.602"/><rect fill="#F1F1F1" height="10" style="stroke:#181818;stroke-width:0.5;" width="15" x="105.5" y="49.602"/><rect fill="#F1F1F1" height="2" style="stroke:#181818;stroke-width:0.5;" width="4" x="103.5" y="51.602"/><rect fill="#F1F1F1" height="2" style="stroke:#181818;stroke-width:0.5;" width="4" x="103.5" y="55.602"/><text fill="#000000" font-family="sans-serif" font-size="14" lengthAdjust="spacing" textLength="63" x="37.5" y="79.5679">Selenium</text></g><!--entity Python ???????--><g id="elem_Python &#1086;&#1073;&#1105;&#1088;&#1090;&#1082;&#1072;"><rect fill="#F1F1F1" height="49.0679" rx="2.5" ry="2.5" style="stroke:#181818;stroke-width:0.5;" width="145" x="160.5" y="44.602"/><rect fill="#F1F1F1" height="10" style="stroke:#181818;stroke-width:0.5;" width="15" x="285.5" y="49.602"/><rect fill="#F1F1F1" height="2" style="stroke:#181818;stroke-width:0.5;" width="4" x="283.5" y="51.602"/><rect fill="#F1F1F1" height="2" style="stroke:#181818;stroke-width:0.5;" width="4" x="283.5" y="55.602"/><text fill="#000000" font-family="sans-serif" font-size="14" lengthAdjust="spacing" textLength="105" x="175.5" y="79.5679">Python &#1086;&#1073;&#1105;&#1088;&#1090;&#1082;&#1072;</text></g><!--entity ????--><g id="elem_&#1057;&#1077;&#1088;&#1074;"><rect fill="#F1F1F1" height="49.0679" rx="2.5" ry="2.5" style="stroke:#181818;stroke-width:0.5;" width="74" x="327" y="198.602"/><rect fill="#F1F1F1" height="10" style="stroke:#181818;stroke-width:0.5;" width="15" x="381" y="203.602"/><rect fill="#F1F1F1" height="2" style="stroke:#181818;stroke-width:0.5;" width="4" x="379" y="205.602"/><rect fill="#F1F1F1" height="2" style="stroke:#181818;stroke-width:0.5;" width="4" x="379" y="209.602"/><text fill="#000000" font-family="sans-serif" font-size="14" lengthAdjust="spacing" textLength="34" x="342" y="233.5679">&#1057;&#1077;&#1088;&#1074;</text></g><!--entity http--><g id="elem_http"><ellipse cx="445" cy="223.102" fill="#F1F1F1" rx="8" ry="8" style="stroke:#181818;stroke-width:0.5;"/><text fill="#000000" font-family="sans-serif" font-size="14" lengthAdjust="spacing" textLength="28" x="431" y="255.0679">http</text></g><g id="elem_GMN14"><path d="M291,368.602 L291,396.308 L515,396.308 L515,378.602 L505,368.602 L291,368.602 " fill="#FEFFDD" style="stroke:#181818;stroke-width:0.5;"/><path d="M505,368.602 L505,378.602 L515,378.602 L505,368.602 " fill="#FEFFDD" style="stroke:#181818;stroke-width:1.0;"/><text fill="#000000" font-family="sans-serif" font-size="13" lengthAdjust="spacing" textLength="203" x="297" y="387.499">&#1054;&#1095;&#1077;&#1088;&#1077;&#1076;&#1100; &#1079;&#1072;&#1076;&#1072;&#1085;&#1080;&#1081; &#1080; &#1088;&#1077;&#1079;&#1091;&#1083;&#1100;&#1090;&#1072;&#1090;&#1086;&#1074;</text></g><!--entity cli--><g id="elem_cli"><rect fill="#F1F1F1" height="49.0679" rx="2.5" ry="2.5" style="stroke:#181818;stroke-width:0.5;" width="55" x="377.5" y="44.602"/><rect fill="#F1F1F1" height="10" style="stroke:#181818;stroke-width:0.5;" width="15" x="412.5" y="49.602"/><rect fill="#F1F1F1" height="2" style="stroke:#181818;stroke-width:0.5;" width="4" x="410.5" y="51.602"/><rect fill="#F1F1F1" height="2" style="stroke:#181818;stroke-width:0.5;" width="4" x="410.5" y="55.602"/><text fill="#000000" font-family="sans-serif" font-size="14" lengthAdjust="spacing" textLength="15" x="392.5" y="79.5679">cli</text></g><g id="elem_GMN20"><path d="M467.5,55.102 L467.5,65.102 L432.76,69.102 L467.5,73.102 L467.5,82.808 A0,0 0 0 0 467.5,82.808 L760.5,82.808 A0,0 0 0 0 760.5,82.808 L760.5,65.102 L750.5,55.102 L467.5,55.102 A0,0 0 0 0 467.5,55.102 " fill="#FEFFDD" style="stroke:#181818;stroke-width:0.5;"/><path d="M750.5,55.102 L750.5,65.102 L760.5,65.102 L750.5,55.102 " fill="#FEFFDD" style="stroke:#181818;stroke-width:0.5;"/><text fill="#000000" font-family="sans-serif" font-size="13" lengthAdjust="spacing" textLength="272" x="473.5" y="73.999">&#1059;&#1087;&#1088;&#1072;&#1074;&#1083;&#1077;&#1085;&#1080;&#1077; &#1087;&#1086;&#1083;&#1100;&#1079;&#1086;&#1074;&#1072;&#1090;&#1077;&#1083;&#1077;&#1084; &#1095;&#1077;&#1088;&#1077;&#1079; &#1082;&#1086;&#1085;&#1089;&#1086;&#1083;&#1100;</text></g><!--entity Front--><g id="elem_Front"><rect fill="#F1F1F1" height="49.0679" rx="2.5" ry="2.5" style="stroke:#181818;stroke-width:0.5;" width="75" x="816.5" y="44.602"/><rect fill="#F1F1F1" height="10" style="stroke:#181818;stroke-width:0.5;" width="15" x="871.5" y="49.602"/><rect fill="#F1F1F1" height="2" style="stroke:#181818;stroke-width:0.5;" width="4" x="869.5" y="51.602"/><rect fill="#F1F1F1" height="2" style="stroke:#181818;stroke-width:0.5;" width="4" x="869.5" y="55.602"/><text fill="#000000" font-family="sans-serif" font-size="14" lengthAdjust="spacing" textLength="35" x="831.5" y="79.5679">Front</text></g><g id="elem_GMN26"><path d="M927,55.102 L927,65.102 L891.62,69.102 L927,73.102 L927,82.808 A0,0 0 0 0 927,82.808 L1229,82.808 A0,0 0 0 0 1229,82.808 L1229,65.102 L1219,55.102 L927,55.102 A0,0 0 0 0 927,55.102 " fill="#FEFFDD" style="stroke:#181818;stroke-width:0.5;"/><path d="M1219,55.102 L1219,65.102 L1229,65.102 L1219,55.102 " fill="#FEFFDD" style="stroke:#181818;stroke-width:0.5;"/><text fill="#000000" font-family="sans-serif" font-size="13" lengthAdjust="spacing" textLength="281" x="933" y="73.999">&#1059;&#1087;&#1088;&#1072;&#1074;&#1083;&#1077;&#1085;&#1080;&#1077; &#1089;&#1080;&#1089;&#1090;&#1077;&#1084;&#1086;&#1081; &#1095;&#1077;&#1088;&#1077;&#1079; vue.js &#1085;&#1072; &#1092;&#1088;&#1086;&#1085;&#1090;&#1077;</text></g><!--reverse link Selenium to Python ???????--><g id="link_Selenium_Python &#1086;&#1073;&#1105;&#1088;&#1090;&#1082;&#1072;"><path d="M131.55,69.102 C143.16,69.102 148.78,69.102 160.39,69.102 " fill="none" id="Selenium-backto-Python &#1086;&#1073;&#1105;&#1088;&#1090;&#1082;&#1072;" style="stroke:#181818;stroke-width:1.0;"/><polygon fill="#181818" points="125.55,69.102,134.55,73.102,130.55,69.102,134.55,65.102,125.55,69.102" style="stroke:#181818;stroke-width:1.0;"/></g><!--link ???? to http--><g id="link_&#1057;&#1077;&#1088;&#1074;_http"><path d="M407.02,223.102 C418.59,223.102 418.16,223.102 429.72,223.102 " fill="none" id="&#1057;&#1077;&#1088;&#1074;-http" style="stroke:#181818;stroke-width:1.0;"/><polygon fill="#181818" points="401.02,223.102,410.02,227.102,406.02,223.102,410.02,219.102,401.02,223.102" style="stroke:#181818;stroke-width:1.0;"/><polygon fill="#181818" points="435.72,223.102,426.72,219.102,430.72,223.102,426.72,227.102,435.72,223.102" style="stroke:#181818;stroke-width:1.0;"/></g><!--link Python ??????? to http--><g id="link_Python &#1086;&#1073;&#1105;&#1088;&#1090;&#1082;&#1072;_http"><path d="M264.36,93.732 C288.62,110.752 323.75,132.722 358,144.602 C383.83,153.562 397.6,135.592 419,152.602 C438.16,167.832 442.6673,192.7657 443.9973,207.6857 " fill="none" id="Python &#1086;&#1073;&#1105;&#1088;&#1090;&#1082;&#1072;-to-http" style="stroke:#181818;stroke-width:1.0;stroke-dasharray:7.0,7.0;"/><polygon fill="#181818" points="444.53,213.662,447.7151,204.3424,444.086,208.6817,439.7467,205.0527,444.53,213.662" style="stroke:#181818;stroke-width:1.0;"/><text fill="#000000" font-family="sans-serif" font-size="13" lengthAdjust="spacing" textLength="52" x="359" y="140.499">REST API</text></g><!--reverse link Python ??????? to RabbitMQ--><g id="link_Python &#1086;&#1073;&#1105;&#1088;&#1090;&#1082;&#1072;_RabbitMQ"><path d="M226.7181,99.6764 C223.4481,116.0964 220.68,132.622 219,152.602 C214.56,205.302 210.46,219.412 219,271.602 C223.1,296.657 232.1275,323.697 240.2388,344.6982 C242.2666,349.9485 244.2371,354.8214 246.0591,359.1915 C246.5146,360.2841 246.9608,361.3452 247.3963,362.3729 C247.5052,362.6298 247.6134,362.8846 247.7209,363.1374 C247.7746,363.2637 247.8282,363.3896 247.8816,363.5149 " fill="none" id="Python &#1086;&#1073;&#1105;&#1088;&#1090;&#1082;&#1072;-backto-RabbitMQ" style="stroke:#181818;stroke-width:1.0;stroke-dasharray:7.0,7.0;"/><polygon fill="#181818" points="227.89,93.792,222.2092,101.8374,226.9134,98.6957,230.0552,103.3999,227.89,93.792" style="stroke:#181818;stroke-width:1.0;"/><text fill="#000000" font-family="sans-serif" font-size="13" lengthAdjust="spacing" textLength="90" x="220" y="228.499">&#1047;&#1072;&#1076;&#1072;&#1085;&#1080;&#1077; &#1074;&#1079;&#1103;&#1090;&#1086;</text></g><!--link ???? to RabbitMQ--><g id="link_&#1057;&#1077;&#1088;&#1074;_RabbitMQ"><path d="M330.26,247.612 C311.36,262.462 288.87,283.232 275,306.602 C272.875,310.1832 270.9861,313.997 269.3072,317.9344 C268.8875,318.9188 268.481,319.9108 268.0871,320.909 C267.8902,321.408 269.8269,316.2996 269.6363,316.8014 " fill="none" id="&#1057;&#1077;&#1088;&#1074;-to-RabbitMQ" style="stroke:#181818;stroke-width:1.0;stroke-dasharray:7.0,7.0;"/><polygon fill="#181818" points="267.5058,322.4104,274.4408,315.4172,269.2812,317.7363,266.9621,312.5766,267.5058,322.4104" style="stroke:#181818;stroke-width:1.0;"/><text fill="#000000" font-family="sans-serif" font-size="13" lengthAdjust="spacing" textLength="53" x="295" y="294.499">&#1047;&#1072;&#1076;&#1072;&#1085;&#1080;&#1077;</text></g><!--link RabbitMQ to GMN14--><g id="link_RabbitMQ_GMN14"><path d="M256.57,382.602 C268.01,382.602 279.45,382.602 290.89,382.602 " fill="none" id="RabbitMQ-GMN14" style="stroke:#181818;stroke-width:1.0;stroke-dasharray:7.0,7.0;"/></g><!--link cli to http--><g id="link_cli_http"><path d="M411.25,93.852 C420.39,128.582 435.4336,185.7394 441.3236,208.1294 " fill="none" id="cli-to-http" style="stroke:#181818;stroke-width:1.0;stroke-dasharray:7.0,7.0;"/><polygon fill="#181818" points="442.85,213.932,444.4287,204.2105,441.578,209.0965,436.6919,206.2457,442.85,213.932" style="stroke:#181818;stroke-width:1.0;"/><text fill="#000000" font-family="sans-serif" font-size="13" lengthAdjust="spacing" textLength="147" x="424" y="140.499">&#1059;&#1087;&#1088;&#1072;&#1074;&#1083;&#1103;&#1102;&#1097;&#1080;&#1077; &#1079;&#1072;&#1087;&#1088;&#1086;&#1089;&#1099;</text></g><!--link Front to http--><g id="link_Front_http"><path d="M819.75,93.752 C806.75,102.042 791.57,110.942 777,117.602 C654.45,173.632 499.3365,210.0374 459.8765,218.8274 " fill="none" id="Front-to-http" style="stroke:#181818;stroke-width:1.0;stroke-dasharray:7.0,7.0;"/><polygon fill="#181818" points="454.02,220.132,463.6744,222.0794,458.9004,219.0448,461.935,214.2708,454.02,220.132" style="stroke:#181818;stroke-width:1.0;"/><text fill="#000000" font-family="sans-serif" font-size="13" lengthAdjust="spacing" textLength="146" x="752" y="140.499">&#1091;&#1087;&#1088;&#1072;&#1074;&#1083;&#1103;&#1102;&#1097;&#1080;&#1077; &#1079;&#1072;&#1087;&#1088;&#1086;&#1089;&#1099;</text></g><!--SRC=[dP71IW9H58RtynG7zyq3X0GH1Iq2qw25k52xwQJDo7GD8WAr828fMhKBeXSOnM4qTNo5SzweS-_ew8IswC9ixld___xVcKQnN2jM1AHE7RSct1JS6i0ddnDrOLlDomAajo2VkP5LnmOCiKTlrA8EVgDNCEuCex7mxpckYDtuYJwriA_SEr2LiX7Thyy1qun4i0tP_Tm9x6OE4zdPOgbaoQFZE7z3JjeqOQ7bB7n73mVyJN68Fc0V0tfbRGY_Mwe26urQR3jIW6jLgXASSyWln0KzL0S_w577-JYWBc2m4Z42788U1NIFO-fo2KyLmRxs2_jCFv1SQDsAUSjrAx4b_C8PvtcCD6Qa5tgA2DMZQX1IcvxNzLP1oyehATnjlgKPr-AAdCNrT4rVZoSG0mR0-mvnIkr8kndYm7LioPEOH5yaM7WZ_sE9elwcuOP3zYk62NSThJ9SDuLvSGMiz80Ur4jCr9d_xoND3m00]--></g></svg>